<svg xmlns="http://www.w3.org/2000/svg" viewBox="0 0 64 64">
  <!-- Orejas -->
  <path d="M15 22 L12 3 L31 15 Z" fill="#141414"/>
  <path d="M49 22 L52 3 L33 15 Z" fill="#141414"/>
  <path d="M17 19 L16 9 L26 16 Z" fill="#e02d2d"/>
  <path d="M47 19 L48 9 L38 16 Z" fill="#e02d2d"/>
  <!-- Cabeza -->
  <circle cx="32" cy="37" r="20" fill="#141414"/>
  <!-- Ojos amarillos -->
  <ellipse cx="24" cy="35" rx="3.4" ry="5.2" fill="#ffd21e"/>
  <ellipse cx="40" cy="35" rx="3.4" ry="5.2" fill="#ffd21e"/>
  <ellipse cx="24" cy="35" rx="1.3" ry="4.2" fill="#141414"/>
  <ellipse cx="40" cy="35" rx="1.3" ry="4.2" fill="#141414"/>
  <!-- Naricita roja -->
  <path d="M29.5 43 L34.5 43 L32 46.5 Z" fill="#e02d2d"/>
  <!-- Bigotes -->
  <g stroke="#141414" stroke-width="1.4" stroke-linecap="round">
    <line x1="20" y1="43" x2="5" y2="40"/>
    <line x1="20" y1="46" x2="5" y2="48"/>
    <line x1="44" y1="43" x2="59" y2="40"/>
    <line x1="44" y1="46" x2="59" y2="48"/>
  </g>
</svg>
